Coordinates
version=1
nRows=9
nColumns=42
inDegrees=yes

Units are S.I. units (second, meters, Newtons, ...)
If the header above contains a line with 'inDegrees', this indicates whether rotational values are in degrees (yes) or radians (no).

endheader
time	pelvis_tilt	pelvis_list	pelvis_rotation	pelvis_tx	pelvis_ty	pelvis_tz	hip_flexion_r	hip_adduction_r	hip_rotation_r	knee_angle_r	knee_angle_r_beta	ankle_angle_r	subtalar_angle_r	mtp_angle_r	hip_flexion_l	hip_adduction_l	hip_rotation_l	knee_angle_l	knee_angle_l_beta	ankle_angle_l	subtalar_angle_l	mtp_angle_l	lumbar_extension	lumbar_bending	lumbar_rotation	sh_tx_r	sh_ty_r	sh_tz_r	sh_plane_elev_r	sh_elev_r	sh_axial_rot_r	elbow_flex_r	pro_sup_r	sh_tx_l	sh_ty_l	sh_tz_l	sh_plane_elev_l	sh_elev_l	sh_axial_rot_l	elbow_flex_l	pro_sup_l
      4.40677970	     -8.51562111	     -1.84033489	      3.32726298	      0.30449619	      0.93500600	     -0.03640020	      4.90360450	     -3.86022042	     -3.04812490	      0.82845185	      0.01445921	      4.70674296	      0.86918878	     -7.49999987	      6.86919625	     -4.36182546	     -9.13919823	      1.62060185	      0.02828484	      9.75584100	      8.92285661	     -7.49999987	      3.73260985	      6.27381621	      0.57559370	     -0.01963595	     -0.00989538	     -0.00718710	    -21.42041525	      4.51070816	     -0.02063208	     32.43208677	    110.08677635	     -0.02200371	      0.02779500	     -0.00719620	     31.63940062	     95.53035973	     13.27113075	      8.08294230	      2.58202145
      4.42372880	     -8.50122584	     -1.84872972	      3.41123845	      0.30458812	      0.93494909	     -0.03645900	      4.85521144	     -3.87550136	     -3.21518673	      0.82111268	      0.01433112	      4.73622770	      1.18278607	     -7.49999987	      6.86029985	     -4.33753376	     -9.00598525	      1.60712065	      0.02804955	      9.74838531	      8.81672487	     -7.49999987	      3.73012808	      6.34633867	      0.40463166	     -0.01892669	     -0.00997925	     -0.00718611	    -21.53987589	      4.54086235	      0.33485515	     32.44394033	    109.79922381	     -0.02242783	      0.02827052	     -0.00718494	     31.67225701	     95.26898809	     13.04175459	      7.79210624	      2.62367971
      4.44067800	     -8.47476938	     -1.86548955	      3.42122171	      0.30450381	      0.93485276	     -0.03647670	      4.82487765	     -3.86675454	     -3.06945807	      0.82525926	      0.01440349	      4.59265629	      0.96857250	     -7.49999987	      6.84164083	     -4.33680175	     -9.03442701	      1.62830682	      0.02841932	      9.82435804	      8.83791893	     -7.49999987	      3.67942976	      6.46613249	      0.31573206	     -0.01859320	     -0.00998278	     -0.00720961	    -22.16560435	      4.50415633	      0.51862655	     32.68464226	    111.38066456	     -0.02278885	      0.02752775	     -0.00722814	     31.28041040	     95.45612004	     12.95775969	      8.20200702	      2.59321438
      4.45762710	     -8.66442222	     -1.90656778	      3.37400661	      0.30405285	      0.93442939	     -0.03657502	      5.33170648	     -3.87030998	     -3.29562917	      1.33528169	      0.02330506	      4.77227555	      1.25729979	     -7.49999987	      7.31290950	     -4.39500326	     -9.34532773	      2.12123009	      0.03702245	     10.12265409	      9.14304109	     -7.49999987	      4.07329081	      6.91869741	      0.37326840	     -0.01649997	     -0.00703035	     -0.00647886	    -21.06167083	      5.02584133	      1.54174197	     32.11120295	    107.37264809	     -0.01887040	      0.02451187	     -0.00630958	     29.80868053	     95.89846930	     12.64403908	     11.26459503	      7.84434089
      4.47457630	     -8.45309132	     -1.89846622	      3.42879033	      0.30436684	      0.93176562	     -0.03621749	      4.82782938	     -3.81221695	     -2.95555069	      0.81361665	      0.01420029	      4.41754937	      0.64085898	     -7.49999987	      6.84440793	     -4.33973291	     -9.02313623	      1.64379444	      0.02868963	      9.95980612	      8.73400191	     -7.49999987	      3.56816235	      6.65692762	      0.71873463	     -0.01980792	     -0.00976339	     -0.00725880	    -22.54400054	      4.57357966	      0.46886445	     33.00974299	    111.40601000	     -0.02364478	      0.02711285	     -0.00731614	     31.41900880	     95.68613668	     12.87426450	      8.58769070	      2.61974852
      4.49152540	     -8.41645182	     -1.88107202	      3.43391178	      0.30453038	      0.93496425	     -0.03652790	      4.80156183	     -3.81501772	     -3.03924307	      0.82862188	      0.01446218	      4.44715178	      0.67695433	     -7.49999987	      6.80319416	     -4.33070720	     -9.07571875	      1.66026375	      0.02897707	      9.94268678	      8.81821836	     -7.49999987	      3.47957883	      6.64058860	      1.14962222	     -0.02127405	     -0.00980501	     -0.00724539	    -22.89033222	      4.54253029	      0.21535552	     32.97982369	    110.94982118	     -0.02309658	      0.02720881	     -0.00731843	     31.74649556	     95.70163973	     14.04040755	      8.59756006	      2.68514433
      4.50847460	     -8.43679305	     -1.91931869	      3.49387076	      0.30453202	      0.93491850	     -0.03660789	      4.82364004	     -3.77213797	     -3.30335740	      0.82113138	      0.01433145	      4.50813512	      1.04865407	     -7.49999987	      6.83132923	     -4.36900036	     -8.87080493	      1.67473151	      0.02922958	      9.94284650	      8.59318004	     -7.49999987	      3.54732840	      6.80568177	      0.45550588	     -0.01917597	     -0.00927776	     -0.00724105	    -22.23022830	      4.54330608	      0.28820521	     32.87977722	    107.61805844	     -0.02466807	      0.02693693	     -0.00734611	     31.01783034	     95.56139617	     13.54800406	      8.57598322	      2.62519865
      4.52542370	     -8.35788919	     -1.92152364	      3.48979419	      0.30453573	      0.93202641	     -0.03625287	      4.73257326	     -3.75306988	     -3.08011724	      0.81993708	      0.01431060	      4.36281882	      0.62766204	     -7.49999987	      6.74136852	     -4.39741075	     -8.97227890	      1.70125837	      0.02969256	     10.02696682	      8.81207253	     -7.49999987	      3.36892873	      6.92548191	      0.06387008	     -0.01826960	     -0.00897688	     -0.00732069	    -21.72716580	      4.57873959	      0.47711511	     33.34060407	    108.00431481	     -0.02580872	      0.02681937	     -0.00739713	     30.26622712	     95.69315464	     13.29372521	      9.00889073	      2.70415691
      4.54237290	     -8.42618668	     -1.92442167	      3.47776781	      0.30453484	      0.93514191	     -0.03650750	      4.79203049	     -3.77933161	     -3.14797300	      0.82205694	      0.01434760	      4.43904250	      0.88594474	     -7.49999987	      6.81863854	     -4.42546498	     -8.91793344	      1.68539112	      0.02941562	      9.99211994	      8.79778517	     -7.49999987	      3.43937805	      6.83837312	      0.72826933	     -0.01989536	     -0.00922960	     -0.00728476	    -22.87622926	      4.60828956	      0.76952295	     33.26331907	    111.58429707	     -0.02433783	      0.02684387	     -0.00735867	     31.02347407	     95.68464094	     14.40340700	      8.87927019	      2.68065379
